<?xml version="1.0"?>
<svg width="331" height="159" xmlns="http://www.w3.org/2000/svg" xmlns:svg="http://www.w3.org/2000/svg" preserveAspectRatio="xMidYMid meet" version="1.0">
 <g class="layer">
  <title>Layer 1</title>
  <g fill="#000000" id="svg_1" transform="matrix(0.1 0 0 -0.1 0 0)">
   <path d="m628,-262c-9,-7 -18,-31 -21,-52c-4,-22 -13,-46 -21,-54c-12,-12 -20,-10 -59,17c-25,17 -50,31 -56,31c-5,0 -44,-33 -85,-73c-87,-84 -91,-100 -45,-159c38,-47 31,-60 -38,-68c-61,-7 -73,-28 -73,-135c0,-126 -1,-125 92,-140c49,-8 52,-25 16,-74c-39,-54 -34,-72 43,-149c75,-76 97,-83 143,-48c19,14 42,26 51,26c18,0 35,-38 35,-80c0,-37 37,-50 139,-50c91,0 121,15 121,61c0,38 16,69 36,69c8,0 30,-11 48,-25c18,-14 40,-25 48,-25c35,0 168,136 168,170c0,8 -14,32 -30,53c-16,22 -26,45 -24,52c6,15 36,25 76,25c44,0 58,32 58,130c0,112 -11,133 -73,140c-70,9 -75,20 -37,74c30,42 32,47 20,76c-13,32 -109,124 -148,143c-15,7 -26,7 -30,1c-15,-22 -71,-54 -85,-48c-17,6 -27,35 -27,76c0,17 -8,31 -19,38c-28,15 -203,13 -223,-2zm175,-52c10,-8 17,-27 17,-48c0,-43 15,-63 62,-78c39,-12 63,-5 88,24c19,24 43,19 76,-16c57,-62 57,-61 24,-106l-30,-42l23,-47c21,-46 24,-48 70,-51l47,-3l0,-73c0,-79 -5,-86 -55,-86c-32,0 -55,-10 -55,-24c0,-6 -7,-24 -15,-40c-15,-28 -14,-31 15,-73l31,-43l-22,-29c-11,-16 -34,-39 -50,-50l-29,-22l-44,31l-44,32l-43,-24c-40,-22 -44,-29 -47,-67c-4,-47 -24,-61 -91,-61c-50,0 -69,17 -73,64c-3,35 -8,42 -47,64l-43,24l-44,-32c-42,-30 -46,-31 -69,-16c-13,9 -36,31 -50,50l-27,35l30,43l29,43l-21,45c-16,33 -28,46 -46,48c-60,7 -68,11 -75,48c-3,20 -3,54 0,75c6,37 9,39 42,39c39,0 73,15 73,33c0,7 6,24 14,39c13,25 12,30 -15,68c-16,22 -29,43 -29,47c0,15 85,93 101,93c9,0 22,-7 29,-16c25,-29 49,-36 88,-24c47,15 62,35 62,81c0,26 6,41 18,48c24,15 104,13 125,-3z" fill="#ff7f00" id="svg_2"/>
   <path d="m635,-532c-60,-30 -95,-67 -121,-126c-65,-145 13,-305 171,-347c61,-17 64,-17 126,4c227,76 247,358 34,470c-54,29 -154,28 -210,-1zm185,-66c19,-9 49,-36 67,-60c65,-86 36,-209 -63,-261c-150,-80 -319,82 -243,233c21,43 63,85 99,99c31,12 106,6 140,-11z" fill="#ff7f00" id="svg_3"/>
   <path d="m1530,-769c0,-396 2,-451 15,-451c13,0 15,54 13,447c-2,346 -6,447 -15,451c-10,3 -13,-91 -13,-447z" fill="#ff7f00" id="svg_4"/>
   <path d="m2203,-375c-103,-44 -67,-144 58,-161c54,-7 74,-17 65,-33c-10,-16 -79,-14 -102,4c-22,17 -80,20 -89,5c-11,-17 24,-61 60,-76c78,-32 207,-2 221,50c16,65 -23,100 -126,115c-31,4 -46,11 -48,24c-3,13 4,17 30,17c19,0 43,-7 54,-15c10,-8 34,-15 52,-15c26,0 32,4 32,20c0,62 -124,101 -207,65z" fill="#ff7f00" id="svg_5"/>
   <path d="m2532,-380c-106,-48 -104,-211 4,-256c103,-43 224,14 224,106c0,45 -16,52 -91,43c-46,-5 -49,-8 -49,-34c0,-23 5,-29 21,-29c28,0 19,-24 -10,-28c-43,-7 -69,7 -80,41c-28,83 48,138 118,86c54,-39 106,-4 64,43c-43,49 -128,61 -201,28z" fill="#ff7f00" id="svg_6"/>
   <path d="m1815,-382c-3,-8 -4,-70 -3,-139l3,-124l90,-3c101,-3 143,12 179,60c25,35 26,114 1,152c-29,44 -71,59 -172,64c-74,3 -94,1 -98,-10zm178,-75c55,-61 1,-149 -78,-129c-23,6 -25,11 -25,70c0,34 3,66 7,69c14,14 80,7 96,-10z" fill="#ff7f00" id="svg_7"/>
   <path d="m2493,-882c-56,-19 -86,-60 -90,-125c-7,-99 47,-153 151,-153c78,0 146,40 146,87c0,20 -5,23 -40,23c-26,0 -43,-5 -46,-14c-3,-8 -19,-20 -35,-27c-26,-10 -34,-9 -57,8c-36,27 -43,92 -13,122c28,28 60,26 101,-4c39,-29 62,-32 80,-10c15,18 -6,55 -44,80c-30,20 -112,27 -153,13z" fill="#ff7f00" id="svg_8"/>
   <path d="m1790,-920c0,-27 3,-30 33,-30c52,0 56,-8 59,-110l3,-95l40,0l40,0l5,100l5,100l43,3c39,3 42,5 42,33l0,29l-135,0l-135,0l0,-30z" fill="#ff7f00" id="svg_9"/>
   <path d="m2100,-1025l0,-135l130,0l130,0l0,29c0,36 -13,41 -102,41c-61,0 -69,2 -66,18c3,14 16,18 66,20c61,3 62,3 62,32c0,29 -1,29 -62,32c-48,2 -63,7 -63,18c0,12 17,16 83,18l82,3l0,29l0,30l-130,0l-130,0l0,-135z" fill="#ff7f00" id="svg_10"/>
   <path d="m2745,-902c-3,-8 -4,-68 -3,-134l3,-119l40,0l40,0l5,45l5,45l52,3l52,3l3,-48l3,-48l40,0l40,0l0,130l0,130l-40,0l-40,0l-3,-47l-3,-48l-54,0l-54,0l-3,48c-3,47 -3,47 -41,50c-24,2 -39,-1 -42,-10z" fill="#ff7f00" id="svg_11"/>
  </g>
 </g>
</svg>